<?xml version="1.0" encoding="UTF-8"?>
<svg id="Layer_1" data-name="Layer 1" xmlns="http://www.w3.org/2000/svg" viewBox="0 0 1024 512">
  <defs>
    <style>
      .cls-1 {
        fill: #ff3b00;
      }

      .cls-2 {
        fill: #fff;
      }
    </style>
  </defs>
  <path class="cls-2" d="M1013.52,116.49c-8.24-54.67-51.34-97.77-106.01-106.01-36.61-5.52-77.43-9.42-121.75-10.27V0H259.15c-52.39-.18-100.17,4.04-142.38,10.37C61.91,18.6,18.66,61.74,10.42,116.59,4.2,157.98,0,204.76,0,255.99s4.2,98.01,10.42,139.4c8.23,54.79,51.4,97.96,106.19,106.19,41.39,6.22,88.17,10.42,139.4,10.42,1.06,0,2.08-.03,3.14-.03v.03h526.6v-.18c44.32-.84,85.09-4.74,121.65-10.24,54.86-8.24,98-51.5,106.22-106.35,6.33-42.2,10.55-89.99,10.36-142.38-.18-50.01-4.35-95.75-10.47-136.36Z"/>
  <g>
    <g>
      <path d="M225.01,273.7c-8.73-4.47-20.37-8.06-34.93-10.75-10.52-2.02-18.58-4.08-24.17-6.21-5.6-2.12-9.4-4.64-11.42-7.55-2.02-2.91-3.02-6.26-3.02-10.07,0-5.82,2.3-10.35,6.89-13.6,4.58-3.24,11.24-4.87,19.98-4.87,9.17,0,16.34,2.41,21.49,7.22,5.15,4.82,8.84,12.37,11.08,22.67l34.59-8.06c-2.24-10.29-5.88-19.03-10.92-26.19-5.03-7.16-12.08-12.7-21.15-16.62-9.06-3.91-20.76-5.88-35.09-5.88-20.6,0-36.15,4.31-46.67,12.93-10.53,8.62-15.78,19.98-15.78,34.08,0,8.29,1.9,15.56,5.71,21.83,3.8,6.27,9.91,11.53,18.3,15.78,8.39,4.25,19.64,7.84,33.74,10.75,10.52,1.8,18.63,3.81,24.35,6.05,5.71,2.24,9.68,4.7,11.92,7.39,2.24,2.69,3.36,5.93,3.36,9.74-.22,6.05-2.69,10.91-7.39,14.61-4.7,3.69-11.86,5.54-21.49,5.54-8.51,0-15.45-1.45-20.82-4.36-5.37-2.91-9.51-6.83-12.42-11.75-2.91-4.92-5.26-10.75-7.05-17.46l-33.91,6.72c2.02,10.07,5.54,19.31,10.58,27.7,5.03,8.39,12.59,14.94,22.66,19.64,10.07,4.7,23.51,7.05,40.3,7.05,14.77,0,26.97-2.02,36.6-6.05,9.62-4.03,16.79-9.74,21.49-17.12,4.7-7.39,7.05-15.89,7.05-25.52,0-8.06-1.8-15.22-5.37-21.49-3.58-6.26-9.74-11.64-18.47-16.12Z"/>
      <path d="M369.58,193.78c-12.09,0-22.28,2.52-30.56,7.56-8.29,5.03-14.77,12.48-19.47,22.33-2.62,5.48-4.66,11.8-6.23,18.8h-.82v-44.66h-36.27v203.82h36.27v-91.33h.73c.9,4.07,1.92,7.96,3.13,11.58,2.8,8.39,6.6,15.45,11.42,21.15,4.81,5.71,10.63,9.97,17.46,12.76,6.82,2.8,14.94,4.2,24.35,4.2,19.69,0,34.92-7.44,45.66-22.33,10.75-14.88,16.12-35.43,16.12-61.61s-5.21-45.61-15.62-60.28c-10.41-14.66-25.8-21.99-46.17-21.99ZM385.36,313.82c-6.72,9.07-17.02,13.6-30.89,13.6-8.28,0-15.67-2.07-22.16-6.21-6.49-4.14-11.42-9.96-14.78-17.46-3.36-7.5-5.03-16.17-5.03-26.02v-2.68c0-10.52,1.68-19.36,5.03-26.53,3.36-7.16,8.23-12.64,14.61-16.45,6.38-3.8,13.94-5.71,22.67-5.71,14.1,0,24.4,4.31,30.89,12.93,6.49,8.62,9.74,20.88,9.74,36.77s-3.36,28.71-10.07,37.77Z"/>
      <path d="M578.94,203.52c-12.09-6.49-26.19-9.74-42.31-9.74s-30.22,3.25-42.31,9.74c-12.09,6.5-21.55,15.9-28.37,28.21-6.83,12.31-10.25,27.2-10.25,44.66s3.25,31.84,9.74,44.49c6.49,12.65,15.78,22.33,27.87,29.05,12.09,6.71,26.52,10.07,43.32,10.07,25.07,0,44.77-7.44,59.1-22.33,14.32-14.88,21.49-35.31,21.49-61.28,0-17.46-3.36-32.35-10.07-44.66-6.71-12.31-16.12-21.71-28.2-28.21ZM569.53,312.81c-7.84,9.29-18.92,13.94-33.24,13.94-9.4,0-17.41-2.13-24.01-6.38-6.6-4.25-11.64-10.18-15.11-17.8-3.47-7.61-5.2-16.45-5.2-26.52,0-15.22,3.91-27.25,11.75-36.1,7.83-8.84,18.8-13.26,32.91-13.26,9.18,0,17.13,2.02,23.84,6.05,6.72,4.03,11.86,9.74,15.45,17.12,3.58,7.39,5.37,16.12,5.37,26.19,0,15.22-3.92,27.48-11.75,36.77Z"/>
      <path d="M761.66,201.51c-7.72-5.15-17.86-7.73-30.39-7.73-10.08,0-19.09,2.08-27.03,6.21-7.95,4.14-14.38,10.75-19.31,19.81-3.22,5.93-5.61,13.05-7.21,21.32h-.52v-43.32h-36.27v157.82h36.27v-93.35c0-7.61,1.51-14.1,4.53-19.47,3.02-5.37,7.33-9.45,12.93-12.26,5.59-2.8,12.2-4.2,19.81-4.2,8.05,0,14.49,1.74,19.31,5.21,4.81,3.47,8.28,7.84,10.41,13.1,2.13,5.26,3.19,11.25,3.19,17.96v93.01h36.27v-103.08c0-11.19-1.74-21.21-5.2-30.05-3.48-8.84-9.07-15.84-16.79-20.99Z"/>
      <path d="M823.67,230.91v122.71c0,5.82-1.06,10.69-3.19,14.61-2.13,3.91-5.87,5.87-11.25,5.87-1.12,0-2.3-.06-3.53-.17-1.23-.12-2.29-.28-3.19-.5l-3.36,30.56c1.57.22,3.31.45,5.2.67,1.9.22,3.97.34,6.21.34,11.86,0,21.37-2.35,28.54-7.05,7.16-4.7,12.37-11.25,15.62-19.64,3.24-8.39,4.87-18.3,4.87-29.72v-117.67h-35.93Z"/>
    </g>
    <path class="cls-1" d="M864.66,146.51c59.8,37.09,45.4,57.91-11.2,17.21,17.59,67.45-7.01,73.39-20.09,4.25-37.09,59.8-57.91,45.4-17.21-11.2-67.45,17.59-73.39-7.01-4.25-20.09-59.8-37.09-45.4-57.91,11.2-17.21-17.59-67.45,7.01-73.39,20.09-4.25,37.09-59.8,57.91-45.4,17.21,11.2,67.45-17.59,73.39,7.01,4.25,20.09Z"/>
  </g>
</svg>